<svg width="16" height="16" viewBox="0 0 16 16" fill="none" xmlns="http://www.w3.org/2000/svg">
<path d="M3.33317 8.66634H11.2398L8.81984 11.573C8.76381 11.6404 8.7216 11.7182 8.69563 11.8019C8.66967 11.8857 8.66044 11.9737 8.66849 12.061C8.68474 12.2372 8.77036 12.3999 8.9065 12.513C9.04265 12.6262 9.21817 12.6806 9.39445 12.6644C9.57074 12.6481 9.73335 12.5625 9.8465 12.4263L13.1798 8.42634C13.2023 8.39453 13.2223 8.3611 13.2398 8.32634C13.2398 8.29301 13.2732 8.27301 13.2865 8.23968C13.3167 8.16324 13.3325 8.08187 13.3332 7.99968C13.3325 7.91748 13.3167 7.83612 13.2865 7.75968C13.2865 7.72634 13.2532 7.70634 13.2398 7.67301C13.2223 7.63825 13.2023 7.60483 13.1798 7.57301L9.8465 3.57301C9.78382 3.49775 9.70533 3.43723 9.61661 3.39575C9.52788 3.35427 9.43111 3.33285 9.33317 3.33301C9.1774 3.3327 9.02645 3.38695 8.9065 3.48634C8.839 3.54231 8.7832 3.61104 8.7423 3.68861C8.70139 3.76617 8.6762 3.85104 8.66815 3.93836C8.6601 4.02568 8.66935 4.11373 8.69538 4.19746C8.72141 4.2812 8.7637 4.35898 8.81984 4.42634L11.2398 7.33301H3.33317C3.15636 7.33301 2.98679 7.40325 2.86177 7.52827C2.73674 7.6533 2.6665 7.82287 2.6665 7.99968C2.6665 8.17649 2.73674 8.34606 2.86177 8.47108C2.98679 8.5961 3.15636 8.66634 3.33317 8.66634Z" fill="white"/>
</svg>
