<svg width="1440" height="333" viewBox="0 0 1440 333" fill="none" xmlns="http://www.w3.org/2000/svg">
<path d="M889.718 14.7891C890.314 14.7891 890.929 14.7982 891.553 14.8258" stroke="#D2E8F9" stroke-miterlimit="10"/>
<path d="M822.622 209.473C820.973 204.831 814.266 201.1 811.267 200.252C795.253 195.746 778.481 196.368 762.265 196.449C744.601 196.53 727.743 200.703 710.226 202.632C701.113 203.632 691.487 201.83 682.356 201.361C667.319 200.595 652.287 199.694 637.256 198.657C624.295 197.765 610.846 199.766 599.412 210.312C598.111 211.51 596.798 212.962 596.212 215.107C592.498 228.618 638.777 226.915 644.805 227.149C675.222 228.321 705.657 228.925 736.074 227.708C758.691 226.806 782.261 226.86 804.695 222.146C809.655 221.101 816.404 220.731 820.692 216.423C823.062 214.043 823.404 211.655 822.628 209.464L822.622 209.473Z" fill="#F5F5F5"/>
<path d="M597.588 108.188C598.429 108.188 599.111 107.506 599.111 106.664C599.111 105.823 598.429 105.141 597.588 105.141C596.747 105.141 596.064 105.823 596.064 106.664C596.064 107.506 596.747 108.188 597.588 108.188Z" stroke="#D6E2FC" stroke-miterlimit="10"/>
<path d="M823.754 79.9923C824.595 79.9923 825.277 79.3102 825.277 78.4688C825.277 77.6274 824.595 76.9453 823.754 76.9453C822.913 76.9453 822.23 77.6274 822.23 78.4688C822.23 79.3102 822.913 79.9923 823.754 79.9923Z" stroke="#D6E2FC" stroke-miterlimit="10"/>
<path d="M703.755 37.297C704.596 37.297 705.278 36.6149 705.278 35.7735C705.278 34.9321 704.596 34.25 703.755 34.25C702.914 34.25 702.231 34.9321 702.231 35.7735C702.231 36.6149 702.914 37.297 703.755 37.297Z" stroke="#D6E2FC" stroke-miterlimit="10"/>
<path d="M701.929 153.172C702.77 153.172 703.452 152.49 703.452 151.648C703.452 150.807 702.77 150.125 701.929 150.125C701.087 150.125 700.405 150.807 700.405 151.648C700.405 152.49 701.087 153.172 701.929 153.172Z" stroke="#D6E2FC" stroke-miterlimit="10"/>
<path d="M737.438 61.9375V65.3791" stroke="#D6E2FC" strokeLinecap="round" strokeLinejoin="round"/>
<path d="M739.164 63.6484H735.713" stroke="#D6E2FC" strokeLinecap="round" strokeLinejoin="round"/>
<path d="M799.304 17.8906V21.3414" stroke="#D6E2FC" strokeLinecap="round" strokeLinejoin="round"/>
<path d="M801.029 19.6172H797.578" stroke="#D6E2FC" strokeLinecap="round" strokeLinejoin="round"/>
<path d="M768.384 209.408C768.384 209.408 761.969 212.143 761.969 213.51C761.969 214.299 770.788 213.17 771.321 212.638C772.174 211.785 770.972 209.518 770.972 209.518L768.375 209.398L768.384 209.408Z" fill="#0A31A5"/>
<path d="M767.97 205.585L768.383 209.531C768.383 209.531 768.594 210.165 769.493 210.238C770.393 210.311 770.98 209.531 770.98 209.531L770.659 204.594" fill="#FFB288"/>
<path d="M779.175 115.117C781.506 124.524 780.644 129.297 777.22 136.391C775.146 160.244 773.705 183.996 770.915 207.252L767.969 207.417C761.269 184.776 755.111 150.928 755.901 119.991" fill="#0A31A5"/>
<path d="M777.715 118.352C778.569 120.536 778.78 122.995 778.707 125.317C778.596 128.888 777.146 132.118 776.201 135.495C774.953 140.011 774.852 144.499 774.512 149.124C773.98 156.365 773.429 163.597 772.879 170.839C771.979 182.641 771.071 194.444 770.153 206.246C770.125 206.595 770.098 206.944 770.07 207.302" stroke="#284FC3" strokeWidth="0.5" stroke-miterlimit="10"/>
<path d="M793.957 210.329C793.957 210.329 787.542 213.064 787.542 214.432C787.542 215.221 796.362 214.092 796.894 213.56C797.748 212.707 796.545 210.44 796.545 210.44L793.948 210.32L793.957 210.329Z" fill="#0A31A5"/>
<path d="M793.544 206.499L793.957 210.445C793.957 210.445 794.168 211.079 795.067 211.152C795.967 211.225 796.554 210.445 796.554 210.445L796.233 205.508" fill="#FFB288"/>
<path d="M800.502 114.32C803.457 123.544 802.906 128.371 799.96 135.677C799.474 159.612 797.822 184.603 796.583 207.997H793.554C785.377 185.851 776.612 151.655 775.346 120.726" fill="#0A31A5"/>
<path d="M799.042 118.141C799.042 118.141 802.465 126.144 796.683 137.386C796.013 147.996 795.674 207.99 795.674 207.99" stroke="#284FC3" strokeWidth="0.5" stroke-miterlimit="10"/>
<path d="M790.579 120.68C791.166 121.588 792.093 122.231 793.085 122.635C794.085 123.038 795.15 123.213 796.214 123.341C797.481 123.497 798.756 123.598 800.032 123.534" stroke="#284FC3" strokeWidth="0.5" stroke-miterlimit="10"/>
<path d="M791.003 122.18C792.095 123.171 793.49 123.777 794.922 124.107C796.354 124.437 797.831 124.502 799.3 124.52" stroke="#284FC3" strokeWidth="0.5" stroke-miterlimit="10"/>
<path d="M765.489 69.7175C755.284 87.4763 744.298 103.556 737.791 122.966L735.854 121.938C736.35 103.914 742.196 77.7021 749.869 61.375" fill="#FFB288"/>
<path d="M760.505 51.1797C760.505 51.1797 757.348 52.0699 753.631 54.5387C750.134 56.8607 747.491 60.3206 745.701 64.111C743.902 67.9014 742.92 72.0314 742.287 76.1797C742.287 76.1797 746.555 78.3181 751.456 78.9238C756.347 79.5387 761.56 78.9238 761.56 78.9238" fill="#3263DC"/>
<path d="M752.888 61.6712C751.805 80.8709 752.631 100.63 753.117 119.307C753.117 119.307 759.817 121.087 776.08 121.087C792.343 121.087 802.897 116.15 802.897 116.15C799.758 96.9502 797.262 73.4003 789.571 57.5963C789.571 57.5963 780.889 48.2351 772.335 47.8496C770.61 47.7762 768.894 48.4003 767.251 49.162C766.039 49.7219 760.496 51.0802 760.496 51.0802L752.888 61.6712Z" fill="#5A8BF5"/>
<path d="M768.984 125.349C796.169 122.339 846.787 113.611 922 144.997C1055 200.497 1063.5 294.997 1191 270.497C1389.57 232.341 1494.5 316.497 1475.5 330.497" stroke="#5A8BFF" strokeWidth="5" strokeLinecap="round" strokeLinejoin="round"/>
<path d="M778.347 126.913C778.347 140.9 767.765 149.334 758.716 149.334H743.885V104.492H758.716C767.756 104.492 778.347 112.926 778.347 126.913Z" fill="#2859D2"/>
<path d="M770.703 126.915C770.703 140.58 762.617 151.649 752.632 151.649H736.259V102.172H752.632C762.608 102.172 770.703 113.249 770.703 126.906V126.915Z" fill="#1445B9"/>
<g style="mix-blend-mode:multiply" opacity="0.5">
<path d="M774.327 113.392C770.784 118.219 767.333 123.102 763.983 128.058C764.461 127.966 764.901 127.737 765.25 127.397C765.25 127.773 764.653 128.416 765.186 128.654C765.709 128.893 766.259 128.278 766.81 128.443C767.324 128.324 767.801 127.682 768.178 127.305C768.012 127.691 767.976 127.966 767.948 128.168C771.555 126.764 774.786 123.396 777.594 120.688C776.906 117.935 775.768 115.484 774.327 113.383V113.392Z" fill="#2859D2"/>
</g>
<path d="M737.432 151.647C747.412 151.647 755.503 140.574 755.503 126.914C755.503 113.253 747.412 102.18 737.432 102.18C727.452 102.18 719.361 113.253 719.361 126.914C719.361 140.574 727.452 151.647 737.432 151.647Z" fill="#4677F0"/>
<path d="M738.947 135.68C738.947 137.709 737.561 139.36 735.845 139.36C734.129 139.36 732.743 137.718 732.743 135.68C732.743 133.643 734.129 132 735.845 132C737.561 132 738.947 133.643 738.947 135.68Z" fill="#283399"/>
<path d="M738.947 118.141C738.947 120.169 737.561 121.821 735.845 121.821C734.129 121.821 732.743 120.179 732.743 118.141C732.743 116.104 734.129 114.461 735.845 114.461C737.561 114.461 738.947 116.104 738.947 118.141Z" fill="#283399"/>
<path d="M794.532 75.8512C794.532 75.8512 795.679 87.5344 790.457 97.2535C785.988 105.559 777.113 116.316 769.945 122.244L768.22 121.822C770.716 112.241 778.59 95.2344 779.086 88.8651C779.573 82.4867 779.462 75.0986 779.573 71.5469" fill="#FFB288"/>
<path d="M772.349 47.8438C772.349 47.8438 781.967 48.5045 787.547 53.2127C795.513 59.9399 796.688 73.1191 796.688 76.1752C794.283 78.7725 789.015 78.9102 785.179 78.9102C781.343 78.9102 778.544 77.0746 778.544 77.0746L777.763 62.5464" fill="#3263DC"/>
<path d="M768.916 120.398C767.824 120.509 766.76 121.041 765.842 121.757C764.998 122.418 763.961 123.519 764.071 124.024C764.181 124.556 765.567 123.537 765.732 123.739C765.897 123.941 763.364 127.768 763.841 128.053C764.318 128.337 766.475 124.877 766.475 124.877C766.475 124.877 764.383 128.576 765.19 128.658C765.869 128.723 767.723 125.226 767.723 125.226C767.723 125.226 766.154 128.355 766.695 128.475C767.237 128.594 768.687 125.474 768.687 125.474C768.687 125.474 767.503 128.135 767.953 128.181C768.182 128.199 769.348 126.878 769.843 125.272C770.321 123.693 770.89 122.317 770.449 121.087" fill="#FFB288"/>
<path d="M752.412 35.6421C752.366 36.2203 752.339 36.7893 752.339 37.3675C752.348 38.6156 752.513 39.9189 753.229 40.9468C753.725 41.6443 754.468 42.1674 755.294 42.3968C755.881 42.5528 756.643 42.4886 756.9 41.9379C756.992 41.7452 756.992 41.5249 756.992 41.3047C756.992 39.1663 756.57 37.0371 755.771 35.0547" fill="#26387A"/>
<path d="M766.922 36.8417C766.096 33.6295 763.499 29.1233 759.277 30.0227C756.625 30.5917 754.184 32.3997 753.404 34.9236C752.468 37.943 753.982 41.4581 755.79 43.9177C756.46 44.8263 757.249 45.689 758.277 46.2304C760.718 47.497 764.022 46.4599 765.683 44.349C767.345 42.2473 767.565 39.3747 766.913 36.8325L766.922 36.8417Z" fill="#FFB288"/>
<path d="M761.005 45.2493L762.381 50.2879L760.5 51.1781C760.5 51.1781 761.932 53.0871 764.768 52.6741C770.531 51.8389 772.339 47.8466 772.339 47.8466L769.09 47.5071L765.493 41.3672" fill="#FFB288"/>
<path d="M769.732 33.3254C769.328 31.1136 767.75 29.2414 765.832 28.0758C762.417 26.0017 757.572 25.8365 754.534 28.6907C752.808 30.3152 749.697 36.0787 753.414 37.2168C754.58 37.5747 755.773 36.868 756.782 36.1889C757.81 35.5005 758.838 34.8122 759.866 34.1239C760.233 33.8761 760.628 33.6191 761.068 33.6008C761.793 33.5732 762.399 34.1973 762.656 34.8765C762.913 35.5556 762.931 36.299 763.106 37.0057C763.225 37.5013 763.445 38.0152 763.877 38.2997C764.308 38.5751 764.996 38.4925 765.217 38.0336C765.373 37.7124 765.263 37.3361 765.253 36.9782C765.253 36.6202 765.446 36.1797 765.804 36.1981C765.933 36.1981 766.052 36.2715 766.153 36.3449C767.052 37.0424 766.759 38.4466 767.052 39.5387C767.089 39.6856 766.795 41.9066 766.887 42.0167C769.75 41.3559 770.026 34.8948 769.732 33.3163V33.3254Z" fill="#26387A"/>
<path d="M765.501 36.4964C765.437 36.0925 765.822 35.7162 766.235 35.6704C766.648 35.6245 767.043 35.8356 767.355 36.1017C767.897 36.5514 768.282 37.2122 768.291 37.9097C768.291 38.4604 768.08 38.9927 767.777 39.4516C767.575 39.7636 767.309 40.0665 766.951 40.1766C766.492 40.3234 765.988 40.1124 765.657 39.7636" fill="#FFB288"/>
<path d="M663.295 209.273C663.295 209.273 669.481 210.301 669.655 211.669C669.756 212.449 660.982 213.376 660.385 212.917C659.431 212.183 660.606 209.439 660.606 209.439L663.304 209.283L663.295 209.273Z" fill="#0A31A5"/>
<path d="M662.799 205.471L663.304 209.38C663.304 209.38 663.175 210.041 662.294 210.225C661.413 210.408 660.725 209.711 660.725 209.711L660 204.828" fill="#FFB288"/>
<path d="M639.672 116.32C638.562 125.948 638.506 130.573 642.811 137.163C644.848 146.478 647.978 156.005 650.346 165.54C649.327 176.93 656.467 195.065 660.303 208.014L663.075 207.537C666.81 184.226 668.187 148.47 664.837 117.174" fill="#0A31A5"/>
<path d="M641.471 129.359C641.471 129.359 652.117 163.161 652.117 164.996C652.117 166.832 652.41 173.146 652.879 177.23C653.741 184.728 660.533 206.819 660.533 206.819" stroke="#284FC3" strokeWidth="0.5" stroke-miterlimit="10"/>
<path d="M660.212 208.545L659.78 206.856L663.36 206.719L663.405 208.279L660.212 208.545Z" fill="#0061A6"/>
<path d="M615.166 209.463C615.166 209.463 620.012 212.959 619.581 214.189C619.333 214.896 611.459 211.977 611.147 211.335C610.642 210.307 612.808 208.453 612.808 208.453L615.176 209.453L615.166 209.463Z" fill="#0A31A5"/>
<path d="M616.349 206.014L615.128 209.566C615.128 209.566 614.743 210.071 613.908 209.86C613.073 209.649 612.788 208.759 612.788 208.759L614.229 204.289" fill="#FFB288"/>
<path d="M618.866 114.32C615.911 123.544 616.462 128.371 619.408 135.677C619.582 144.423 619.674 153.261 619.775 162.108C613.543 177.701 612.561 191.688 613.35 206.538L616.352 207.648C616.352 207.648 634.239 176.472 637.524 164.155C641.296 150.021 643.435 134.906 644.022 120.726" fill="#0A31A5"/>
<path d="M619.608 116.32C619.608 116.32 616.35 125.847 620.618 135.024C620.618 137.585 622.086 158.886 621.508 162.172C621.233 163.751 618.305 171.276 616.35 178.609C614.193 186.713 613.734 205.83 613.734 205.83" stroke="#284FC3" strokeWidth="0.5" stroke-miterlimit="10"/>
<path d="M612.788 206.532L613.265 204.531L617.111 206.321L616.349 208.037L612.788 206.532Z" fill="#0061A6"/>
<path d="M668.897 43.0458L666.483 40.99V36.7315C666.483 36.0707 665.584 32.106 664.776 32.106C663.969 32.106 663.785 31.1148 663.381 31.5186C662.978 31.9224 663.712 36.4011 663.381 36.7315C663.051 37.0619 662.62 34.6023 662.317 34.9052C662.014 35.208 661.986 37.016 661.986 37.9338C661.986 38.8516 662.721 40.5586 663.455 41.2836C664.189 42.0179 667.42 45.5145 667.42 45.5145L668.888 43.0458H668.897Z" fill="#EF9467"/>
<path d="M667.686 41.6875L665.676 43.9819C665.676 43.9819 673.633 54.5179 676.157 58.0421C673.862 57.2345 670.558 55.2154 668.649 53.9672C664.905 51.5168 661.151 50.2136 658.563 50.2136C653.047 50.2136 655.938 68.3762 662.326 71.0377C674.45 72.864 688.051 71.7077 690.125 67.44C693.209 61.1258 675.432 46.2396 667.686 41.6875Z" fill="#3263DC"/>
<path d="M676.146 58.0312C676.146 58.0312 677.661 62.2713 680.359 63.648" stroke="#5081F5" strokeWidth="0.5" stroke-miterlimit="10"/>
<path d="M630.707 55.0116C616.253 71.2469 616.473 99.1654 616.473 118.145C616.473 118.145 627.082 125.395 643.29 125.395C659.498 125.395 666.253 121.403 666.253 121.403C666.739 102.176 663.307 93.8882 666.482 62.0876C666.482 62.0876 661.306 50.2209 658.552 50.2209C655.799 50.2209 645.006 49.1562 645.006 49.1562L630.707 55.03V55.0116Z" fill="#5081EB"/>
<path d="M665.685 71.4641C665.685 71.4641 666.015 65.9116 667.364 64.5625" stroke="#5081F5" strokeWidth="0.5" stroke-miterlimit="10"/>
<path d="M649.788 36.9742C650.329 33.6978 652.66 29.0172 656.946 29.5495C659.636 29.8799 661.719 31.743 663.224 33.9181C664.518 35.7811 664.032 37.5708 662.187 42.2973C661.6 43.2609 660.333 44.9863 659.36 45.6104C657.038 47.088 653.661 46.3446 651.816 44.3898C649.971 42.435 649.357 39.5715 649.779 36.9742H649.788Z" fill="#FFB288"/>
<path d="M650.355 36.5668C650.97 36.4751 650.355 36.0712 650.63 36.6311C650.805 36.989 650.86 37.0991 651.208 37.2093C651.548 37.3194 651.557 37.6406 651.842 37.8517C652.291 38.1821 652.668 37.7324 652.851 37.3469C653.2 36.6403 653.191 35.7776 653.108 35.0158C653.044 34.4101 652.842 33.4556 653.429 33.0334C653.916 32.6939 654.98 33.1895 655.476 33.3363C656.247 33.5566 657.009 33.8044 657.77 34.043C659.615 34.6028 661.57 35.0984 663.506 34.8414C665.204 34.612 666.957 33.7309 667.774 32.1524C668.747 30.271 666.801 27.8022 664.819 27.8022C664.296 27.8022 663.809 28.0132 663.295 28.1142C663.112 28.1509 662.91 28.1784 662.726 28.1142C662.295 27.9857 662.102 27.4993 661.854 27.123C661.12 25.9758 659.863 25.6271 658.569 25.7739C657.1 25.9391 655.843 26.6366 654.439 27.0221C653.695 27.224 653.053 27.0312 652.319 27.0588C651.557 27.0863 650.768 27.5819 650.428 28.2886C649.832 27.6645 648.492 29.1972 648.152 29.6102C646.684 31.3906 646.225 33.9604 646.188 36.2181C646.151 38.1913 646.482 41.0547 648.639 41.8532C649.556 42.1927 650.125 42.3671 650.171 41.532C649.767 40.6601 649.676 38.9439 649.593 38.2188C649.51 37.4938 649.722 36.6311 650.392 36.3466" fill="#26387A"/>
<path d="M657.395 44.7938L656.927 49.7405L658.551 50.1994C658.551 50.1994 657.688 52.4204 654.853 52.7967C649.08 53.5676 645.005 49.1348 645.005 49.1348L646.932 48.7585L649.851 39.5625" fill="#FFB288"/>
<path d="M651.319 36.5274C651.346 36.1144 650.924 35.7748 650.52 35.7656C650.107 35.7656 649.731 35.9951 649.437 36.2888C647.822 37.8948 649.85 41.8137 651.447 39.7854" fill="#FFB288"/>
<path d="M662.196 42.2057C661.939 42.8114 660.911 43.0592 660.352 43.1142C657.635 43.4171 655.386 41.655 652.789 41.3338C652.275 41.2695 651.688 41.2236 651.302 41.5724C650.935 41.9028 650.908 42.4535 650.899 42.9399C650.889 43.5456 650.88 44.1605 650.935 44.757C650.981 45.2802 651.082 45.8125 651.357 46.2622C652.532 48.217 656.442 48.5474 658.433 48.4281C659.232 48.3822 660.067 48.2262 660.7 47.749C661.591 47.079 661.783 45.8951 662.123 44.858C662.536 43.5823 662.215 42.1873 662.215 42.1873L662.196 42.2057Z" fill="#26387A"/>
<path d="M660.278 44.3328C660.196 44.2777 660.095 44.2319 659.994 44.2319C658.727 44.2319 658.021 43.929 657.039 43.8464C656.873 43.8372 656.699 43.8189 656.534 43.8739C656.185 43.9841 655.983 44.342 655.91 44.6999C655.836 45.0578 656.02 45.3332 656.341 45.4892C656.928 45.7829 657.589 45.8838 658.241 45.9022C658.81 45.9205 659.553 45.9664 660.021 45.581C660.287 45.3607 660.682 44.6173 660.287 44.3328H660.278Z" fill="#FFB288"/>
<path d="M648.335 116C569 103.5 535 111.5 484.5 182C358.071 358.5 -23.8355 65.7111 -34.5 65.5" stroke="#5A8BFF" strokeWidth="5" strokeLinecap="round" strokeLinejoin="round"/>
<path d="M636.22 118.569C637.386 132.501 648.629 140.036 657.641 139.283L672.426 138.053L668.7 93.3672L653.915 94.597C644.902 95.3496 635.055 104.637 636.22 118.569Z" fill="#2859D2"/>
<path d="M643.84 117.937C644.978 131.556 653.954 141.918 663.902 141.083L680.211 139.724L676.099 90.4219L659.791 91.7802C649.842 92.6062 642.702 104.317 643.84 117.937Z" fill="#1445B9"/>
<path d="M679.049 139.825C688.994 138.995 696.136 127.287 695 113.674C693.864 100.061 684.881 89.6986 674.935 90.5286C664.989 91.3585 657.848 103.067 658.984 116.679C660.119 130.292 669.103 140.655 679.049 139.825Z" fill="#4677F0"/>
<path d="M676.217 124.03C676.382 126.049 677.906 127.582 679.613 127.435C681.32 127.288 682.559 125.535 682.393 123.516C682.228 121.497 680.705 119.964 678.998 120.111C677.291 120.249 676.052 122.011 676.217 124.03Z" fill="#6495FF"/>
<path d="M674.759 106.569C674.924 108.588 676.448 110.121 678.155 109.974C679.862 109.836 681.101 108.074 680.935 106.055C680.77 104.036 679.247 102.504 677.54 102.65C675.833 102.797 674.594 104.55 674.759 106.569Z" fill="#6495FF"/>
<path d="M678.355 108.849C680.209 108.693 701.409 106.922 701.409 106.922C702.813 106.803 703.859 105.555 703.74 104.141C703.621 102.719 702.382 101.663 700.978 101.783C700.978 101.783 679.685 103.563 677.923 103.71C676.161 103.857 676.492 109.005 678.355 108.859V108.849Z" fill="#093399"/>
<path d="M679.813 126.326C681.667 126.17 702.867 124.399 702.867 124.399C704.271 124.279 705.317 123.031 705.198 121.618C705.079 120.195 703.84 119.14 702.436 119.259C702.436 119.259 681.143 121.04 679.381 121.186C677.619 121.333 677.95 126.482 679.813 126.335V126.326Z" fill="#093399"/>
<path d="M623.006 75.8512C623.006 75.8512 621.859 87.5344 627.081 97.2535C631.551 105.559 640.426 116.316 647.593 122.244L649.319 121.822C646.822 112.241 638.948 95.2344 638.452 88.8651C637.966 82.4867 638.076 75.0986 637.966 71.5469" fill="#FFB288"/>
<path d="M645.004 49.1406C645.004 49.1406 634.872 49.728 629.044 54.1241C618.967 61.7324 620.949 82.1802 623.877 92.1655C626.805 102.151 640.92 117.156 645.481 120.387C646.225 120.387 648.418 120.203 648.345 118.478C645.821 110.686 638.635 90.1923 638.635 90.1923L639.773 62.54" fill="#3263DC"/>
<path d="M648.619 120.398C649.711 120.509 650.775 121.041 651.693 121.757C652.538 122.418 653.575 123.519 653.465 124.024C653.354 124.556 651.969 123.537 651.803 123.739C651.638 123.941 654.171 127.768 653.694 128.053C653.217 128.337 651.06 124.877 651.06 124.877C651.06 124.877 653.153 128.576 652.345 128.658C651.666 128.723 649.812 125.226 649.812 125.226C649.812 125.226 651.381 128.355 650.84 128.475C650.298 128.594 648.848 125.474 648.848 125.474C648.848 125.474 650.032 128.135 649.582 128.181C649.353 128.199 648.187 126.878 647.692 125.272C647.215 123.693 646.646 122.317 647.086 121.087" fill="#FFB288"/>
<path d="M641.481 98.3431C639.866 93.69 638.646 90.2025 638.646 90.2025L640.775 66.9922" stroke="#5081F5" strokeWidth="0.5" stroke-miterlimit="10"/>
<path d="M621.565 72.6328C621.51 78.9287 622.263 86.6838 623.878 92.1812C625.291 96.9903 629.293 102.965 633.57 108.215" stroke="#5081F5" strokeWidth="0.5" stroke-miterlimit="10"/>
<path d="M634.653 37.6046L625.255 30.0238C625.255 30.0238 629.486 14.4126 623.887 8.96106C620.914 6.06092 617.142 4.07854 613.26 2.60094C604.596 -0.67549 594.262 -1.41888 586.553 3.69308C580.863 7.4651 577.412 13.9354 575.861 20.58C574.502 26.4354 574.613 33.0892 578.274 37.8524C579.917 39.9908 582.166 41.606 584.561 42.8542C592.004 46.7547 611.672 48.2231 620.216 42.5055C622.584 40.9177 622.373 38.7793 623.364 35.4295L634.653 37.5954V37.6046Z" fill="#4677F0"/>
<path d="M587.814 25.539C587.137 25.4487 586.55 25.2139 586.051 24.8344C585.552 24.4549 585.185 23.9521 584.948 23.326C584.712 22.6998 584.649 21.9733 584.759 21.1465C584.87 20.3129 585.122 19.6249 585.514 19.0826C585.907 18.5369 586.393 18.148 586.974 17.9159C587.554 17.6804 588.183 17.6078 588.86 17.698C589.536 17.7882 590.124 18.023 590.623 18.4025C591.122 18.7786 591.488 19.2812 591.72 19.9103C591.957 20.5364 592.019 21.2663 591.908 22.1C591.797 22.9302 591.546 23.6165 591.154 24.1588C590.765 24.7015 590.28 25.0907 589.699 25.3262C589.119 25.5582 588.49 25.6292 587.814 25.539ZM588.004 24.1143C588.397 24.1667 588.751 24.1166 589.067 23.964C589.383 23.8114 589.644 23.5611 589.851 23.213C590.061 22.862 590.202 22.4183 590.273 21.8819C590.345 21.3421 590.326 20.8753 590.215 20.4815C590.107 20.0881 589.921 19.7764 589.656 19.5464C589.391 19.3163 589.062 19.1751 588.67 19.1227C588.28 19.0707 587.927 19.1211 587.611 19.2737C587.296 19.4263 587.031 19.6778 586.817 20.0283C586.607 20.3793 586.466 20.8247 586.394 21.3646C586.322 21.901 586.342 22.3661 586.453 22.7599C586.568 23.1507 586.757 23.4612 587.022 23.6913C587.287 23.9213 587.614 24.0623 588.004 24.1143ZM595.885 26.6154C595.209 26.5252 594.621 26.2903 594.122 25.9108C593.624 25.5314 593.256 25.0285 593.02 24.4024C592.783 23.7763 592.72 23.0498 592.83 22.223C592.941 21.3893 593.193 20.7014 593.585 20.159C593.978 19.6133 594.465 19.2244 595.045 18.9923C595.626 18.7568 596.255 18.6842 596.931 18.7744C597.607 18.8646 598.195 19.0995 598.694 19.479C599.193 19.855 599.559 20.3576 599.792 20.9867C600.028 21.6129 600.091 22.3428 599.979 23.1764C599.869 24.0066 599.617 24.6929 599.225 25.2352C598.836 25.778 598.351 26.1671 597.771 26.4026C597.19 26.6347 596.562 26.7056 595.885 26.6154ZM596.075 25.1907C596.468 25.2431 596.823 25.193 597.139 25.0404C597.454 24.8878 597.716 24.6375 597.922 24.2895C598.132 23.9385 598.273 23.4948 598.345 22.9584C598.417 22.4186 598.397 21.9518 598.286 21.5579C598.179 21.1646 597.993 20.8529 597.728 20.6228C597.463 20.3927 597.134 20.2515 596.741 20.1991C596.351 20.1472 595.999 20.1975 595.683 20.3501C595.367 20.5027 595.102 20.7543 594.888 21.1048C594.678 21.4558 594.537 21.9012 594.465 22.441C594.394 22.9774 594.413 23.4425 594.524 23.8363C594.639 24.2272 594.829 24.5376 595.094 24.7677C595.359 24.9978 595.686 25.1388 596.075 25.1907ZM600.532 27.1307L601.55 19.4947L604.558 19.8959C605.136 19.9729 605.613 20.1496 605.99 20.4259C606.371 20.6992 606.643 21.045 606.806 21.4632C606.973 21.8818 607.022 22.3457 606.954 22.8548C606.887 23.3604 606.718 23.7917 606.448 24.1486C606.178 24.5055 605.82 24.7655 605.374 24.9286C604.931 25.0887 604.417 25.1295 603.829 25.0512L601.912 24.7956L602.085 23.5041L603.74 23.7249C604.051 23.7663 604.314 23.7458 604.53 23.6634C604.75 23.5814 604.922 23.4513 605.047 23.2732C605.175 23.0956 605.255 22.882 605.289 22.6326C605.323 22.3764 605.301 22.1475 605.224 21.9459C605.15 21.7414 605.018 21.5725 604.827 21.4392C604.636 21.306 604.385 21.2186 604.074 21.1771L602.983 21.0316L602.141 27.3453L600.532 27.1307ZM610.013 28.5048C609.398 28.4228 608.874 28.2573 608.442 28.0083C608.012 27.7598 607.694 27.4323 607.488 27.0257C607.285 26.6196 607.213 26.1406 607.273 25.5887L608.831 25.7965C608.817 26.052 608.864 26.2756 608.971 26.4671C609.078 26.6553 609.235 26.8066 609.442 26.9212C609.649 27.0358 609.895 27.112 610.178 27.1498C610.452 27.1862 610.694 27.1786 610.906 27.1269C611.122 27.0757 611.294 26.9873 611.422 26.8618C611.554 26.7334 611.632 26.5752 611.657 26.3873C611.68 26.2164 611.648 26.0661 611.561 25.9363C611.477 25.8069 611.343 25.6882 611.16 25.5803C610.979 25.4727 610.755 25.3681 610.487 25.2663L609.679 24.9499C609.057 24.7104 608.582 24.3985 608.255 24.014C607.927 23.6261 607.801 23.1503 607.876 22.5866C607.938 22.1253 608.116 21.7388 608.412 21.427C608.711 21.1122 609.091 20.8881 609.55 20.7546C610.013 20.6182 610.523 20.5872 611.08 20.6614C611.647 20.7371 612.128 20.9003 612.522 21.1511C612.92 21.4023 613.214 21.7162 613.403 22.0927C613.597 22.4697 613.666 22.8841 613.613 23.336L612.06 23.1289C612.073 22.828 611.976 22.5786 611.769 22.3807C611.566 22.1832 611.271 22.0587 610.885 22.0072C610.625 21.9726 610.398 21.9805 610.204 22.0311C610.013 22.0787 609.861 22.161 609.748 22.2781C609.635 22.3952 609.568 22.5374 609.545 22.7048C609.522 22.8825 609.556 23.0401 609.649 23.1777C609.743 23.3118 609.875 23.4303 610.045 23.533C610.22 23.6328 610.413 23.7229 610.625 23.8033L611.284 24.0633C611.605 24.1827 611.897 24.3242 612.161 24.488C612.425 24.6484 612.647 24.8328 612.828 25.0412C613.012 25.25 613.144 25.485 613.224 25.746C613.304 26.0036 613.323 26.2913 613.281 26.609C613.219 27.0771 613.046 27.468 612.765 27.7816C612.487 28.0923 612.115 28.3122 611.649 28.4413C611.184 28.567 610.639 28.5882 610.013 28.5048Z" fill="white"/>
</svg>
