<svg xmlns="http://www.w3.org/2000/svg" version="1.1" xmlns:xlink="http://www.w3.org/1999/xlink" xmlns:svgjs="http://svgjs.com/svgjs" width="45" height="39"><svg width="45" height="39" viewBox="0 0 45 39" fill="none" xmlns="http://www.w3.org/2000/svg">
<path d="M36.9234 17.7155C36.4493 17.7155 35.9947 17.9014 35.6594 18.2323C35.3242 18.5632 35.1358 19.012 35.1358 19.4799V24.5182C35.1495 24.6919 35.1282 24.8666 35.073 25.0322C35.0178 25.1977 34.93 25.3508 34.8145 25.4826C34.699 25.6144 34.5581 25.7223 34.4001 25.8C34.2421 25.8778 34.07 25.9238 33.8938 25.9354H17.0803C16.9608 25.9353 16.8427 25.9592 16.7328 26.0054C16.623 26.0517 16.5238 26.1195 16.4413 26.2047L10.7698 32.0437C10.648 32.1698 10.4907 32.2569 10.3182 32.2939C10.1458 32.3308 9.96603 32.3159 9.80222 32.2511C9.63841 32.1863 9.49804 32.0745 9.39922 31.9302C9.3004 31.7858 9.24766 31.6156 9.2478 31.4414V26.7787C9.2478 26.5475 9.15477 26.3258 8.98917 26.1624C8.82356 25.9989 8.59896 25.9071 8.36476 25.9071H4.77519C4.43572 25.8679 4.12418 25.7024 3.90407 25.4443C3.68396 25.1863 3.57186 24.855 3.59062 24.5182V11.0544C3.57694 10.8807 3.5983 10.706 3.65346 10.5405C3.70863 10.3749 3.79651 10.2218 3.91201 10.09C4.02751 9.95821 4.16835 9.85032 4.32637 9.7726C4.48439 9.69488 4.65646 9.64885 4.83262 9.6372H25.164C25.6381 9.6372 26.0928 9.4513 26.428 9.1204C26.7633 8.7895 26.9516 8.3407 26.9516 7.87274C26.9497 7.40535 26.7608 6.95763 26.4259 6.62714C26.0911 6.29664 25.6375 6.11014 25.164 6.10828H4.81826C4.17275 6.12025 3.53596 6.25776 2.94435 6.51292C2.35274 6.76808 1.81791 7.1359 1.37047 7.59531C0.923035 8.05472 0.571775 8.59672 0.336792 9.19028C0.10181 9.78384 -0.012282 10.4173 0.0010466 11.0544V24.5182C-0.0181584 25.7994 0.478174 27.0359 1.38121 27.9565C2.28424 28.877 3.52027 29.4066 4.81826 29.4289C5.05188 29.4308 5.27539 29.5232 5.44059 29.6863C5.60578 29.8493 5.69942 30.0699 5.7013 30.3005V35.4309C5.6964 36.0022 5.86653 36.5617 6.18937 37.0359C6.51221 37.5101 6.9727 37.8769 7.51044 38.0883C7.84018 38.2128 8.19128 38.2729 8.54424 38.2654C8.92515 38.2642 9.3018 38.1862 9.65114 38.0364C10.0005 37.8865 10.3152 37.6679 10.5759 37.3938L17.9489 29.7053C18.0319 29.6183 18.132 29.5489 18.2431 29.5014C18.3542 29.4539 18.474 29.4292 18.5951 29.4289H33.8938C35.1918 29.4066 36.4279 28.877 37.3309 27.9565C38.2339 27.0359 38.7303 25.7994 38.7111 24.5182V19.4728C38.7111 19.2415 38.6648 19.0124 38.5748 18.7987C38.4849 18.585 38.3531 18.3909 38.187 18.2277C38.021 18.0644 37.8238 17.9351 37.607 17.8472C37.3902 17.7593 37.1579 17.7145 36.9234 17.7155Z" fill="#3498DB"></path>
<path d="M43.1114 6.11538H38.8039V1.86367C38.8039 1.36939 38.605 0.895361 38.2509 0.545856C37.8968 0.19635 37.4165 0 36.9158 0C36.415 0 35.9348 0.19635 35.5807 0.545856C35.2266 0.895361 35.0276 1.36939 35.0276 1.86367V6.11538H30.7202C30.2194 6.11538 29.7391 6.31173 29.385 6.66124C29.031 7.01074 28.832 7.48477 28.832 7.97905C28.832 8.47332 29.031 8.94736 29.385 9.29686C29.7391 9.64637 30.2194 9.84272 30.7202 9.84272H35.0276V14.0944C35.0276 14.5887 35.2266 15.0627 35.5807 15.4122C35.9348 15.7617 36.415 15.9581 36.9158 15.9581C37.4165 15.9581 37.8968 15.7617 38.2509 15.4122C38.605 15.0627 38.8039 14.5887 38.8039 14.0944V9.84272H43.1114C43.6121 9.84272 44.0924 9.64637 44.4465 9.29686C44.8006 8.94736 44.9995 8.47332 44.9995 7.97905C44.9995 7.48477 44.8006 7.01074 44.4465 6.66124C44.0924 6.31173 43.6121 6.11538 43.1114 6.11538Z" fill="#D835D8"></path>
</svg><style>@media (prefers-color-scheme: light) { :root { filter: none; } }
</style></svg>